<svg aria-hidden="true" style="position: absolute; width: 0; height: 0; overflow: hidden;" version="1.1" xmlns="http://www.w3.org/2000/svg" xmlns:xlink="http://www.w3.org/1999/xlink">
<defs>
<symbol id="icon-facebook" viewBox="0 0 16 32">
<path d="M13.105 5.312h2.895v-5.088c-1.402-0.151-2.81-0.226-4.219-0.224-4.189 0-7.053 2.656-7.053 7.52v4.192h-4.728v5.696h4.728v14.592h5.667v-14.592h4.712l0.708-5.696h-5.421v-3.632c0-1.68 0.431-2.768 2.71-2.768z"></path>
</symbol>
<symbol id="icon-instargam" viewBox="0 0 32 32">
<path d="M23.756 5.358c-0.368 0-0.727 0.109-1.033 0.313s-0.544 0.494-0.684 0.834c-0.141 0.34-0.177 0.713-0.106 1.074s0.249 0.692 0.509 0.952c0.26 0.26 0.591 0.437 0.952 0.509s0.734 0.035 1.074-0.106 0.63-0.379 0.834-0.684c0.204-0.306 0.313-0.665 0.313-1.032 0-0.493-0.196-0.966-0.544-1.314s-0.821-0.544-1.314-0.544zM30.88 9.106c-0.030-1.285-0.271-2.556-0.712-3.763-0.394-1.033-1.007-1.968-1.796-2.741-0.767-0.794-1.704-1.403-2.741-1.781-1.204-0.455-2.476-0.701-3.763-0.728-1.641-0.093-2.168-0.093-6.38-0.093s-4.739 0-6.38 0.093c-1.287 0.027-2.559 0.273-3.763 0.728-1.035 0.382-1.972 0.99-2.741 1.781-0.794 0.767-1.403 1.704-1.781 2.741-0.455 1.204-0.701 2.477-0.728 3.763-0.093 1.642-0.093 2.168-0.093 6.38s0 4.739 0.093 6.38c0.027 1.287 0.273 2.559 0.728 3.763 0.378 1.037 0.987 1.974 1.781 2.741 0.77 0.791 1.706 1.399 2.741 1.781 1.204 0.455 2.477 0.701 3.763 0.728 1.642 0.093 2.168 0.093 6.38 0.093s4.739 0 6.38-0.093c1.287-0.027 2.559-0.273 3.763-0.728 1.037-0.378 1.974-0.987 2.741-1.781 0.793-0.77 1.407-1.706 1.797-2.741 0.442-1.207 0.682-2.478 0.712-3.763 0-1.641 0.093-2.168 0.093-6.38s0-4.739-0.093-6.38zM28.092 21.681c-0.011 0.983-0.189 1.957-0.526 2.88-0.247 0.674-0.645 1.283-1.161 1.781-0.502 0.512-1.11 0.908-1.781 1.161-0.924 0.337-1.897 0.515-2.88 0.527-1.549 0.077-2.122 0.093-6.195 0.093s-4.646 0-6.195-0.093c-1.021 0.019-2.037-0.138-3.004-0.465-0.641-0.266-1.221-0.662-1.704-1.161-0.514-0.498-0.906-1.107-1.146-1.781-0.378-0.937-0.588-1.933-0.619-2.942 0-1.549-0.093-2.122-0.093-6.194s0-4.646 0.093-6.195c0.007-1.005 0.19-2.001 0.542-2.942 0.273-0.654 0.691-1.236 1.223-1.704 0.471-0.532 1.052-0.955 1.704-1.239 0.944-0.341 1.939-0.519 2.942-0.527 1.549 0 2.122-0.093 6.195-0.093s4.646 0 6.194 0.093c0.983 0.011 1.957 0.189 2.88 0.527 0.704 0.261 1.335 0.686 1.843 1.239 0.508 0.476 0.904 1.057 1.161 1.704 0.344 0.943 0.522 1.939 0.526 2.942 0.078 1.549 0.093 2.122 0.093 6.195s-0.015 4.646-0.093 6.195zM15.486 7.542c-1.571 0.003-3.105 0.472-4.41 1.346s-2.32 2.117-2.919 3.569c-0.599 1.452-0.754 3.049-0.446 4.589s1.066 2.954 2.178 4.064c1.112 1.109 2.527 1.865 4.068 2.17s3.137 0.147 4.588-0.455c1.451-0.602 2.691-1.62 3.563-2.926s1.338-2.841 1.338-4.412c0.002-1.045-0.203-2.080-0.602-3.046s-0.986-1.843-1.726-2.581c-0.74-0.738-1.618-1.323-2.585-1.721s-2.002-0.6-3.047-0.596zM15.486 20.643c-1.020 0-2.017-0.302-2.865-0.869s-1.509-1.372-1.899-2.314-0.492-1.979-0.293-2.98c0.199-1 0.69-1.919 1.411-2.64s1.64-1.212 2.64-1.411c1-0.199 2.037-0.097 2.98 0.293s1.748 1.051 2.314 1.899c0.567 0.848 0.869 1.845 0.869 2.865 0 0.677-0.133 1.348-0.393 1.973s-0.639 1.194-1.118 1.673c-0.479 0.479-1.047 0.859-1.673 1.118s-1.296 0.393-1.973 0.393z"></path>
</symbol>
<symbol id="icon-twitter" viewBox="0 0 32 32">
<path stroke-linejoin="round" stroke-linecap="round" stroke-miterlimit="4" stroke-width="2.6667" d="M30.667 4c-1.277 0.901-2.691 1.589-4.187 2.040-0.803-0.923-1.87-1.578-3.057-1.875s-2.437-0.222-3.58 0.214c-1.143 0.436-2.125 1.213-2.812 2.226s-1.047 2.212-1.031 3.435v1.333c-2.343 0.061-4.665-0.459-6.759-1.513s-3.894-2.609-5.241-4.527c0 0-5.333 12 6.667 17.333-2.746 1.864-6.017 2.799-9.333 2.667 12 6.667 26.667 0 26.667-15.333-0.001-0.371-0.037-0.742-0.107-1.107 1.361-1.342 2.321-3.036 2.773-4.893z"></path>
</symbol>
<svg width="80" height="80" viewBox="0 0 80 80" fill="none" xmlns="http://www.w3.org/2000/svg">
</svg>
<symbol id="icon-arrow-bottom" viewBox="0 0 80 80">
<circle cx="40" cy="40" r="39.5" stroke="#FAFAFA" stroke-opacity="0.5" />
<path d="M20 39.8601L40 60M40 60L60 39.8601M40 60V20" stroke="#FAFAFA" stroke-opacity="0.5" />
</symbol>

<symbol id="icon-search-bottom" viewBox="0 0 18 18">
  <path d="M8.25 14.25C11.5637 14.25 14.25 11.5637 14.25 8.25C14.25 4.93629 11.5637 2.25 8.25 2.25C4.93629 2.25 2.25 4.93629 2.25 8.25C2.25 11.5637 4.93629 14.25 8.25 14.25Z" stroke="#111111" stroke-width="1.5" stroke-linecap="round" stroke-linejoin="round" />
  <path d="M15.7498 15.75L12.4873 12.4875" stroke="#111111" stroke-width="1.5" stroke-linecap="round" stroke-linejoin="round" />

</symbol>
</defs>
</svg>
